<?xml version="1.0" encoding="utf-8"?>
<!-- Generator: Adobe Illustrator 16.0.0, SVG Export Plug-In . SVG Version: 6.00 Build 0)  -->
<!DOCTYPE svg PUBLIC "-//W3C//DTD SVG 1.1//EN" "http://www.w3.org/Graphics/SVG/1.1/DTD/svg11.dtd">
<svg version="1.1" id="Layer_1" xmlns="http://www.w3.org/2000/svg" xmlns:xlink="http://www.w3.org/1999/xlink" x="0px" y="0px"
	 width="53.328px" height="47.005px" viewBox="0 0 53.328 47.005" enable-background="new 0 0 53.328 47.005" xml:space="preserve">
<g>
	<path fill="none" d="M38.888,30.047c0,3.492-2.83,6.32-6.322,6.32H19.927c-3.49,0-6.318-2.828-6.318-6.32V17.409
		c0-3.491,2.828-6.321,6.318-6.321h12.639c3.492,0,6.322,2.83,6.322,6.321V30.047z"/>
	<g>
		<g>
			<path fill="#D14242" d="M24.141,31.627h3.162c0,0,0-4.359,0-7.9h2.344l0.289-3.159h-2.512v-1.263c0-0.615,0.41-0.759,0.697-0.759
				c0.289,0,1.773,0,1.773,0v-2.709l-2.439-0.012c-2.71,0-3.327,2.021-3.327,3.313v1.429h-1.567v3.159h1.58
				C24.141,27.309,24.141,31.627,24.141,31.627z"/>
		</g>
	</g>
</g>
<circle fill="none" stroke="#D14242" stroke-miterlimit="10" cx="26.5" cy="23" r="18.5"/>
</svg>
