<?xml version="1.0" encoding="utf-8"?>
<!-- Generator: Adobe Illustrator 16.0.0, SVG Export Plug-In . SVG Version: 6.00 Build 0)  -->
<!DOCTYPE svg PUBLIC "-//W3C//DTD SVG 1.1//EN" "http://www.w3.org/Graphics/SVG/1.1/DTD/svg11.dtd">
<svg version="1.1" id="Layer_1" xmlns="http://www.w3.org/2000/svg" xmlns:xlink="http://www.w3.org/1999/xlink" x="0px" y="0px"
	 width="53.328px" height="47.005px" viewBox="0 0 53.328 47.005" enable-background="new 0 0 53.328 47.005" xml:space="preserve">
<g>
	<path fill="none" d="M39.339,28.73c0,3.489-2.416,6.571-5.905,6.571H20.793c-3.49,0-6.454-3.082-6.454-6.571V16.089
		c0-3.491,2.964-6.788,6.454-6.788h12.641c3.489,0,5.905,3.297,5.905,6.788V28.73z"/>
	<g>
		<g>
			<path fill="#D35140" d="M34.579,16.323c-0.627,0.365-1.322,0.632-2.061,0.774c-0.59-0.62-1.433-1.008-2.365-1.008
				c-1.79,0-3.242,1.429-3.242,3.192c0,0.25,0.029,0.492,0.085,0.725c-2.695-0.13-5.083-1.401-6.683-3.334
				c-0.278,0.473-0.439,1.021-0.439,1.606c0,1.106,0.574,2.081,1.443,2.654c-0.531-0.018-1.031-0.159-1.469-0.399
				c0,0.014,0,0.028,0,0.042c0,1.544,1.118,2.834,2.601,3.129c-0.273,0.072-0.559,0.112-0.854,0.112c-0.21,0-0.412-0.021-0.61-0.059
				c0.413,1.268,1.609,2.192,3.029,2.215c-1.111,0.857-2.509,1.367-4.028,1.367c-0.263,0-0.519-0.017-0.772-0.045
				c1.434,0.906,3.14,1.435,4.968,1.435c5.964,0,9.225-4.863,9.225-9.08c0-0.138-0.004-0.275-0.01-0.413
				c0.634-0.448,1.185-1.013,1.619-1.648c-0.583,0.253-1.207,0.422-1.863,0.499C33.822,17.693,34.335,17.069,34.579,16.323z"/>
		</g>
	</g>
</g>
<circle fill="none" stroke="#D14242" stroke-miterlimit="10" cx="25.839" cy="22.301" r="18.5"/>
</svg>
