<?xml version="1.0" encoding="utf-8"?>
<!-- Generator: Adobe Illustrator 16.0.0, SVG Export Plug-In . SVG Version: 6.00 Build 0)  -->
<!DOCTYPE svg PUBLIC "-//W3C//DTD SVG 1.1//EN" "http://www.w3.org/Graphics/SVG/1.1/DTD/svg11.dtd">
<svg version="1.1" id="Layer_1" xmlns="http://www.w3.org/2000/svg" xmlns:xlink="http://www.w3.org/1999/xlink" x="0px" y="0px"
	 width="53.328px" height="47.005px" viewBox="0 0 53.328 47.005" enable-background="new 0 0 53.328 47.005" xml:space="preserve">
<g>
	<path fill="none" d="M40.359,30.047c0,3.492-2.828,6.32-6.318,6.32H21.401c-3.491,0-6.319-2.828-6.319-6.32V17.408
		c0-3.49,2.828-6.32,6.319-6.32h12.639c3.49,0,6.318,2.83,6.318,6.32V30.047z"/>
	<g>
		<g>
			<path fill="#D14242" d="M31.9,26.45h0.682c0.18,0,0.326-0.146,0.326-0.33v-2.387h2.381c0.184,0,0.332-0.15,0.332-0.33v-0.68
				c0-0.183-0.148-0.329-0.332-0.329h-2.381v-2.389c0-0.182-0.146-0.329-0.326-0.329H31.9c-0.182,0-0.33,0.147-0.33,0.329v2.389
				h-2.381c-0.182,0-0.332,0.146-0.332,0.329v0.68c0,0.18,0.15,0.33,0.332,0.33h2.381v2.387C31.57,26.303,31.718,26.45,31.9,26.45z"
				/>
			<path fill="#D14242" d="M22.516,30.606c0.604,0.152,1.251,0.23,1.926,0.23c0.604,0,1.18-0.08,1.711-0.23
				c1.662-0.484,2.736-1.711,2.736-3.125c0-1.357-0.436-2.168-1.604-2.996c-0.502-0.357-0.957-0.877-0.965-1.037
				c0-0.292,0.026-0.432,0.678-0.943c0.848-0.659,1.311-1.532,1.311-2.451c0-0.835-0.254-1.575-0.688-2.096h0.336
				c0.07,0,0.139-0.021,0.193-0.061l0.938-0.682c0.115-0.083,0.166-0.231,0.119-0.367c-0.043-0.14-0.17-0.23-0.313-0.23h-4.191
				c-0.459,0-0.926,0.081-1.382,0.239c-1.526,0.526-2.595,1.831-2.595,3.171c0,1.896,1.466,3.332,3.428,3.376
				c-0.038,0.152-0.059,0.301-0.059,0.445c0,0.291,0.073,0.568,0.226,0.836c-0.018,0-0.035,0-0.054,0
				c-1.868,0-3.556,0.918-4.194,2.285c-0.169,0.355-0.253,0.715-0.253,1.07c0,0.344,0.09,0.676,0.263,0.988
				C20.485,29.75,21.348,30.311,22.516,30.606z M22.891,19.976c-0.091-0.694,0.054-1.318,0.398-1.712
				c0.224-0.256,0.517-0.391,0.842-0.391l0.038,0.001c0.928,0.028,1.813,1.062,1.976,2.305c0.094,0.697-0.063,1.352-0.412,1.751
				c-0.223,0.256-0.512,0.391-0.852,0.391c0,0,0,0-0.002,0h-0.015C23.958,22.293,23.052,21.219,22.891,19.976z M24.67,25.737
				l0.038,0.002c0.311,0.004,0.612,0.049,0.898,0.137c0.099,0.066,0.192,0.131,0.285,0.193c0.659,0.453,1.096,0.75,1.219,1.227
				c0.027,0.119,0.041,0.242,0.041,0.357c0,1.229-0.914,1.854-2.72,1.854c-1.369,0-2.439-0.842-2.439-1.916
				C21.992,26.602,23.244,25.737,24.67,25.737z"/>
		</g>
	</g>
</g>
<circle fill="none" stroke="#D14242" stroke-miterlimit="10" cx="26.5" cy="23" r="18.5"/>
</svg>
