<?xml version="1.0" encoding="utf-8"?>
<!-- Generator: Adobe Illustrator 15.0.2, SVG Export Plug-In . SVG Version: 6.00 Build 0)  -->
<!DOCTYPE svg PUBLIC "-//W3C//DTD SVG 1.1//EN" "http://www.w3.org/Graphics/SVG/1.1/DTD/svg11.dtd">
<svg version="1.1" id="Layer_1" xmlns="http://www.w3.org/2000/svg" xmlns:xlink="http://www.w3.org/1999/xlink" x="0px" y="0px"
	 width="100px" height="100px" viewBox="0 0 100 100" enable-background="new 0 0 100 100" xml:space="preserve">
<polyline fill="#D14242" points="76.449,43.854 71.291,55.035 69.582,56.554 67.303,55.604 67.303,39.268 65.022,39.268 
	62.174,37.558 64.643,29.01 65.872,27.944 "/>
<path fill="none" stroke="#D14242" stroke-width="2" stroke-miterlimit="10" d="M65.872,28.515"/>
<circle fill="none" stroke="#D14242" stroke-miterlimit="10" cx="50.257" cy="50" r="26.9"/>
<path fill="none" stroke="#D14242" stroke-miterlimit="10" d="M29.479,33.068l3.631,4.205l5.283,3.61l-3.003,3.602l1.52,9.6v8.738
	l1.804,1.994l11.544-9.878l3.368-11.112l-0.95-2.09l-6.506-0.854l-1.852-2.564h-4.939h-0.986l-1.483-2.47l9.26-3.039l7.456-5.509
	l1.293-3.79"/>
<path fill="none" stroke="#D14242" stroke-width="2" stroke-miterlimit="10" d="M28.909,33.638"/>
<polyline fill="#D14242" points="50.257,76.9 53.814,71.94 56.949,70.516 59.578,75.239 "/>
<circle fill="none" stroke="#D14242" stroke-miterlimit="10" cx="50.257" cy="50" r="47.203"/>
<path fill="#D14242" d="M76.449,43.854c0,0-1.455-7.965-10.577-15.909"/>
</svg>
