<?xml version="1.0" encoding="utf-8"?>
<!-- Generator: Adobe Illustrator 16.0.0, SVG Export Plug-In . SVG Version: 6.00 Build 0)  -->
<!DOCTYPE svg PUBLIC "-//W3C//DTD SVG 1.1//EN" "http://www.w3.org/Graphics/SVG/1.1/DTD/svg11.dtd">
<svg version="1.1" id="Layer_1" xmlns="http://www.w3.org/2000/svg" xmlns:xlink="http://www.w3.org/1999/xlink" x="0px" y="0px"
	 width="100px" height="100px" viewBox="0 0 100 100" enable-background="new 0 0 100 100" xml:space="preserve">
<path fill="#D14242" d="M43.099,48.18h14.316c0.437,0,0.79-0.354,0.79-0.789s-0.354-0.789-0.79-0.789H43.099
	c-0.437,0-0.79,0.354-0.79,0.789S42.662,48.18,43.099,48.18L43.099,48.18z M43.099,48.18"/>
<path fill="#D14242" d="M43.099,56.602h14.316c0.437,0,0.79-0.354,0.79-0.789s-0.354-0.79-0.79-0.79H43.099
	c-0.437,0-0.79,0.354-0.79,0.79S42.662,56.602,43.099,56.602L43.099,56.602z M43.099,56.602"/>
<path fill="#D14242" d="M43.099,52.391h14.316c0.437,0,0.79-0.354,0.79-0.789c0-0.437-0.354-0.79-0.79-0.79H43.099
	c-0.437,0-0.79,0.354-0.79,0.79C42.309,52.037,42.662,52.391,43.099,52.391L43.099,52.391z M43.099,52.391"/>
<path fill="#D14242" d="M38.889,48.18h0.841c0.437,0,0.79-0.354,0.79-0.789s-0.354-0.789-0.79-0.789h-0.841
	c-0.437,0-0.79,0.354-0.79,0.789S38.452,48.18,38.889,48.18L38.889,48.18z M38.889,48.18"/>
<path fill="#D14242" d="M38.889,56.602h0.841c0.437,0,0.79-0.354,0.79-0.789s-0.354-0.79-0.79-0.79h-0.841
	c-0.437,0-0.79,0.354-0.79,0.79S38.452,56.602,38.889,56.602L38.889,56.602z M38.889,56.602"/>
<path fill="#D14242" d="M38.889,52.391h0.841c0.437,0,0.79-0.354,0.79-0.789c0-0.437-0.354-0.79-0.79-0.79h-0.841
	c-0.437,0-0.79,0.354-0.79,0.79C38.099,52.037,38.452,52.391,38.889,52.391L38.889,52.391z M38.889,52.391"/>
<rect x="30" y="34" fill="none" stroke="#D14242" stroke-width="2" stroke-linecap="round" stroke-linejoin="round" stroke-miterlimit="10" width="34" height="42"/>
<rect x="41" y="28" fill="#D14242" stroke="#D14242" stroke-width="2" stroke-linecap="round" stroke-linejoin="round" stroke-miterlimit="10" width="29" height="3"/>
<rect x="68" y="34" fill="#D14242" stroke="#D14242" stroke-width="2" stroke-linecap="round" stroke-linejoin="round" stroke-miterlimit="10" width="3" height="31"/>
<circle fill="none" stroke="#D14242" stroke-miterlimit="10" cx="50.257" cy="50" r="47.203"/>
</svg>
