<?xml version="1.0" encoding="utf-8"?>
<!-- Generator: Adobe Illustrator 16.0.0, SVG Export Plug-In . SVG Version: 6.00 Build 0)  -->
<!DOCTYPE svg PUBLIC "-//W3C//DTD SVG 1.1//EN" "http://www.w3.org/Graphics/SVG/1.1/DTD/svg11.dtd">
<svg version="1.1" id="Layer_1" xmlns="http://www.w3.org/2000/svg" xmlns:xlink="http://www.w3.org/1999/xlink" x="0px" y="0px"
	 width="100px" height="100px" viewBox="0 0 100 100" enable-background="new 0 0 100 100" xml:space="preserve">
<path fill="none" stroke="#D14242" stroke-width="2" stroke-linecap="round" stroke-linejoin="round" stroke-miterlimit="10" d="
	M22.796,50.521c0-14.846,12.085-26.929,26.931-26.929s26.93,12.083,26.93,26.929s-12.084,26.931-26.93,26.931"/>
<path fill="#D14242" d="M49.726,33.547c-1.334,0-2.414-1.084-2.414-2.416v-4.818c0-1.342,1.08-2.415,2.414-2.415
	c1.33,0,2.418,1.073,2.418,2.415v4.818C52.144,32.463,51.056,33.547,49.726,33.547"/>
<path fill="#D14242" d="M49.727,74.884c-0.709,0-1.283-0.569-1.283-1.282v-2.563c0-0.708,0.574-1.283,1.283-1.283
	c0.707,0,1.285,0.575,1.285,1.283v2.563C51.012,74.314,50.434,74.884,49.727,74.884"/>
<path fill="#D14242" d="M73.814,52.816H69.24c-1.268,0-2.297-1.031-2.297-2.297c0-1.263,1.029-2.292,2.297-2.292h4.574
	c1.264,0,2.293,1.029,2.293,2.292C76.107,51.785,75.078,52.816,73.814,52.816"/>
<path fill="#D14242" d="M24.208,51.806h-2.56c-0.709,0-1.285-0.577-1.285-1.285c0-0.707,0.576-1.283,1.285-1.283h2.56
	c0.708,0,1.282,0.576,1.282,1.283C25.49,51.229,24.916,51.806,24.208,51.806"/>
<path fill="#D14242" d="M49.727,54.366c-2.83,0-5.128-2.298-5.128-5.129c0-2.83,2.298-5.128,5.128-5.128
	c2.831,0,5.127,2.298,5.127,5.128C54.854,52.068,52.558,54.366,49.727,54.366 M49.727,46.677c-1.416,0-2.567,1.146-2.567,2.561
	c0,1.415,1.151,2.568,2.567,2.568c1.415,0,2.567-1.153,2.567-2.568C52.294,47.823,51.142,46.677,49.727,46.677"/>
<path fill="#D14242" d="M49.727,46.677c-0.709,0-1.283-0.575-1.283-1.284v-7.695c0-0.707,0.574-1.283,1.283-1.283
	c0.707,0,1.285,0.576,1.285,1.283v7.695C51.012,46.102,50.434,46.677,49.727,46.677"/>
<path fill="#D14242" d="M35.619,64.627c-0.324,0-0.656-0.125-0.907-0.374c-0.501-0.501-0.501-1.315,0-1.815l11.389-11.384
	c0.5-0.501,1.31-0.501,1.812,0c0.5,0.502,0.5,1.309,0,1.81l-11.385,11.39C36.277,64.502,35.951,64.627,35.619,64.627"/>
<circle fill="none" stroke="#D14242" stroke-miterlimit="10" cx="50.257" cy="50" r="48.344"/>
</svg>
